<?xml version="1.0" encoding="UTF-8"?>
<svg xmlns="http://www.w3.org/2000/svg" width="607" height="807" viewBox="68.547241 122.68109 607 807">
  <rect width="600" height="800" x="72.047" y="126.18" fill="#fff" stroke="#000" stroke-width="5" color="#000" display="block" rx="17.143" ry="17.143"/>
  <path fill-rule="evenodd" stroke="#000" stroke-width=".92204pt" d="M261.03 464.19c-131.54 134.38-3.6047 232.26 100.39 168.1.56663 33.098-25.384 63.998-41.346 93.544h112.29c-16.434-28.717-43.883-60.354-44.886-93.544 106.18 60.994 219.1-45.375 101.28-168.1-61.432-67.399-99.835-119.84-114.3-137.67-13.201 17.381-48.368 68.49-113.42 137.67z"/>
  <text xml:space="preserve" x="82.752068" y="206.35907" stroke-width="1pt" font-family="Bitstream Vera Serif" font-size="95.593"><tspan x="82.752068" y="206.35907">A</tspan></text>
  <text xml:space="preserve" x="-664.06226" y="-846.08978" stroke-width="1pt" font-family="Bitstream Vera Serif" font-size="95.593" transform="scale(-1)"><tspan x="-664.06226" y="-846.08978">A</tspan></text>
  <path fill-rule="evenodd" stroke="#000" stroke-width=".15566pt" d="M97.688 236.9c-22.207 22.687-.60857 39.211 16.949 28.38.09566 5.5878-4.2855 10.804-6.9803 15.793h18.957c-2.7744-4.8481-7.4086-10.189-7.578-15.793 18.046 10.719 36.989-7.6605 17.098-28.38-10.371-11.379-16.855-20.232-19.298-23.242-2.2286 2.9344-8.1658 11.563-19.148 23.242zM650.17 815.68c22.207-22.687.60857-39.211-16.949-28.38-.09566-5.5878 4.2855-10.804 6.9803-15.793h-18.957c2.7744 4.8481 7.4086 10.189 7.578 15.793-18.046-10.719-36.989 7.6605-17.098 28.38 10.371 11.379 16.855 20.232 19.298 23.242 2.2286-2.9344 8.1658-11.563 19.148-23.242z"/>
</svg>